<?xml version="1.0" encoding="UTF-8"?>
<svg width="305px" height="148px" viewBox="0 0 305 148" version="1.1" xmlns="http://www.w3.org/2000/svg" xmlns:xlink="http://www.w3.org/1999/xlink">
    <!-- Generator: Sketch 63.1 (92452) - https://sketch.com -->
    <title>Group 7</title>
    <desc>Created with Sketch.</desc>
    <defs>
        <polygon id="path-1" points="0 0 19.2049606 0 19.2049606 23.0732807 0 23.0732807"></polygon>
        <path d="M10,31 L102.00016,31 L102.00016,31 L102.00016,65.639997 C101.401395,70.5955195 107.549592,73.0732807 120.444751,73.0732807 C133.33991,73.0732807 149.896932,73.0732807 170.115816,73.0732807 L185.904955,72.6628757 L185.904955,54.9273352 C180.707251,48.5962779 178.108398,45.4307493 178.108398,45.4307493 C178.108398,45.4307493 178.108398,40.6204995 178.108398,31 L283,31 C288.522847,31 293,35.4771525 293,41 L293,131 C293,136.522847 288.522847,141 283,141 L10,141 C4.4771525,141 6.76353751e-16,136.522847 0,131 L0,41 C-2.45271059e-15,35.4771525 4.4771525,31 10,31 Z" id="path-3"></path>
        <filter x="-3.1%" y="-8.2%" width="106.1%" height="116.4%" filterUnits="objectBoundingBox" id="filter-4">
            <feMorphology radius="1" operator="dilate" in="SourceAlpha" result="shadowSpreadOuter1"></feMorphology>
            <feOffset dx="0" dy="0" in="shadowSpreadOuter1" result="shadowOffsetOuter1"></feOffset>
            <feGaussianBlur stdDeviation="2" in="shadowOffsetOuter1" result="shadowBlurOuter1"></feGaussianBlur>
            <feColorMatrix values="0 0 0 0 0   0 0 0 0 0   0 0 0 0 0  0 0 0 0.197443182 0" type="matrix" in="shadowBlurOuter1"></feColorMatrix>
        </filter>
    </defs>
    <g id="Page-1" stroke="none" stroke-width="1" fill="none" fill-rule="evenodd">
        <g id="HOME-hover" transform="translate(-926.000000, -5486.000000)">
            <g id="Group-7" transform="translate(932.000000, 5487.000000)">
                <g id="Group-21" transform="translate(102.000000, 0.000000)">
                    <path d="M8.26015951,12.6769592 C9.00495946,12.7137592 9.54975943,12.7625592 10.0961594,12.7649592 C14.4417591,12.7817592 18.7865589,12.7785592 23.1321586,12.8041592 C26.1825584,12.8225592 27.8417583,14.0705592 28.7241583,16.975359 C29.3553583,19.0497589 30.0785582,21.1057587 30.5537582,23.2169586 C30.9897582,25.1561585 32.0177581,25.7729585 33.965758,25.7595777 C44.9537573,25.6857585 55.9433567,25.7249585 66.931356,25.7193585 C67.532956,25.7193585 68.1337559,25.6625585 68.8289559,25.6265585 C68.8617559,24.9521585 68.9105559,24.4073585 68.9113559,23.8617586 C68.9158541,17.592159 68.9177559,11.3217593 68.9129559,5.0513597 C68.9113559,2.59055985 68.7337559,2.43855985 66.2473561,2.43935985 C55.1353567,2.44335985 44.0225574,2.43935985 32.909758,2.43855985 C25.4601585,2.43775985 18.0105589,2.43535985 10.5617594,2.44175985 C9.57855943,2.44255985 8.3377595,2.27215986 8.28975951,3.69535978 C8.19055951,6.6553596 8.26015951,9.62015943 8.26015951,12.6769592 L8.26015951,12.6769592 Z M0.000159999991,16.726559 C1.07295994,14.2553592 2.79935983,12.6825592 5.89135965,12.7761592 C5.89135965,9.86175941 5.88975965,7.09375958 5.89135965,4.32495974 C5.89295965,1.31775992 7.16895957,0.00895999947 10.1849594,0.00735999956 C29.0729583,-0.00223999987 47.9593571,-0.00223999987 66.845756,0.00415999975 C69.9785558,0.0049599997 71.2417558,1.28335992 71.2473558,4.42655974 C71.2585558,11.0745593 71.2761558,17.7217589 71.2417558,24.3697585 C71.2369558,25.3449585 71.4521557,25.9185585 72.4177557,26.3553584 C74.3489556,27.2289584 75.2873555,28.8897583 75.3217555,30.9753582 C75.3769555,34.328958 75.3953555,37.6865578 75.2841555,41.0377576 C75.2649555,41.6425575 73.0633556,41.6601575 73.0385556,41.0609576 C72.9193557,38.2081577 72.9865556,35.3473579 72.9825556,32.4897581 C72.9769557,28.9921583 72.1697557,28.1713583 68.7433559,28.1705583 C57.1241566,28.1673583 45.5065573,28.1665583 33.888158,28.1609583 C30.3769582,28.1593583 29.2961583,27.3401584 28.2905583,23.9577586 C27.6729584,21.8793587 27.0393584,19.8057588 26.4401584,17.7217589 C25.9457585,16.005759 24.9177585,15.1921591 23.0497586,15.2137591 C17.272959,15.2793591 11.4945593,15.2297591 5.71615966,15.2393591 C3.44415979,15.2433591 2.40735986,16.224159 2.40335986,18.5241589 C2.38015986,34.8017579 2.37695986,51.078557 2.39455986,67.356956 C2.39775986,70.0609558 3.48815979,71.0337558 6.38975962,71.0361558 C18.5673589,71.0465558 30.7441582,71.0409558 42.9209574,71.0409558 C43.2945574,71.0409558 43.7297574,70.9217558 44.0257574,71.0737558 C44.5553573,71.3457557 44.4977573,73.0353556 43.9457574,73.3833556 C43.7233574,73.5241556 43.3385574,73.4081556 43.0289574,73.4089556 C30.9753582,73.4097556 18.9217589,73.3417556 6.86975959,73.4568713 C3.56415979,73.4881556 1.22735993,72.4521557 0.000159999991,69.3065559 L0.000159999991,16.726559 Z" id="Fill-1" fill="#FFFFFF"></path>
                    <path d="M8.26015951,12.6769592 C9.00495946,12.7137592 9.54975943,12.7625592 10.0961594,12.7649592 C14.4417591,12.7817592 18.7865589,12.7785592 23.1321586,12.8041592 C26.1825584,12.8225592 27.8417583,14.0705592 28.7241583,16.975359 C29.3553583,19.0497589 30.0785582,21.1057587 30.5537582,23.2169586 C30.9897582,25.1561585 32.0177581,25.7729585 33.965758,25.7595777 C44.9537573,25.6857585 55.9433567,25.7249585 66.931356,25.7193585 C67.532956,25.7193585 68.1337559,25.6625585 68.8289559,25.6265585 C68.8617559,24.9521585 68.9105559,24.4073585 68.9113559,23.8617586 C68.9158541,17.592159 68.9177559,11.3217593 68.9129559,5.0513597 C68.9113559,2.59055985 68.7337559,2.43855985 66.2473561,2.43935985 C55.1353567,2.44335985 44.0225574,2.43935985 32.909758,2.43855985 C25.4601585,2.43775985 18.0105589,2.43535985 10.5617594,2.44175985 C9.57855943,2.44255985 8.3377595,2.27215986 8.28975951,3.69535978 C8.19055951,6.6553596 8.26015951,9.62015943 8.26015951,12.6769592 Z M0.000159999991,16.726559 C1.07295994,14.2553592 2.79935983,12.6825592 5.89135965,12.7761592 C5.89135965,9.86175941 5.88975965,7.09375958 5.89135965,4.32495974 C5.89295965,1.31775992 7.16895957,0.00895999947 10.1849594,0.00735999956 C29.0729583,-0.00223999987 47.9593571,-0.00223999987 66.845756,0.00415999975 C69.9785558,0.0049599997 71.2417558,1.28335992 71.2473558,4.42655974 C71.2585558,11.0745593 71.2761558,17.7217589 71.2417558,24.3697585 C71.2369558,25.3449585 71.4521557,25.9185585 72.4177557,26.3553584 C74.3489556,27.2289584 75.2873555,28.8897583 75.3217555,30.9753582 C75.3769555,34.328958 75.3953555,37.6865578 75.2841555,41.0377576 C75.2649555,41.6425575 73.0633556,41.6601575 73.0385556,41.0609576 C72.9193557,38.2081577 72.9865556,35.3473579 72.9825556,32.4897581 C72.9769557,28.9921583 72.1697557,28.1713583 68.7433559,28.1705583 C57.1241566,28.1673583 45.5065573,28.1665583 33.888158,28.1609583 C30.3769582,28.1593583 29.2961583,27.3401584 28.2905583,23.9577586 C27.6729584,21.8793587 27.0393584,19.8057588 26.4401584,17.7217589 C25.9457585,16.005759 24.9177585,15.1921591 23.0497586,15.2137591 C17.272959,15.2793591 11.4945593,15.2297591 5.71615966,15.2393591 C3.44415979,15.2433591 2.40735986,16.224159 2.40335986,18.5241589 C2.38015986,34.8017579 2.37695986,51.078557 2.39455986,67.356956 C2.39775986,70.0609558 3.48815979,71.0337558 6.38975962,71.0361558 C18.5673589,71.0465558 30.7441582,71.0409558 42.9209574,71.0409558 C43.2945574,71.0409558 43.7297574,70.9217558 44.0257574,71.0737558 C44.5553573,71.3457557 44.4977573,73.0353556 43.9457574,73.3833556 C43.7233574,73.5241556 43.3385574,73.4081556 43.0289574,73.4089556 C30.9753582,73.4097556 18.9217589,73.3417556 6.86975959,73.4568713 C3.56415979,73.4881556 1.22735993,72.4521557 0.000159999991,69.3065559 L0.000159999991,16.726559 Z" id="Stroke-3" stroke="#FFFFFF" stroke-width="1.5999999"></path>
                    <path d="M65.9577561,76.8644754 C69.0617559,76.8644754 72.1665557,76.8900754 75.2697555,76.8580754 C79.0385553,76.8196754 81.4169551,74.6516756 81.4849551,70.9244758 C81.5905551,65.2148761 81.5889551,59.5004765 81.4841551,53.7908768 C81.4177551,50.140477 79.1297553,47.8572771 75.4801555,47.8012772 C69.1489559,47.7052772 62.8145563,47.6988772 56.4833566,47.8052772 C52.8225569,47.8668771 50.628157,50.222077 50.603357,53.8612768 C50.564957,59.5108765 50.569757,65.1612761 50.602557,70.8100758 C50.624157,74.5676756 52.8721568,76.8060754 56.6449566,76.8556754 C59.7489564,76.8972754 62.8537563,76.8644754 65.9577561,76.8644754 L65.9577561,76.8644754 Z M83.904955,72.6628757 C81.7465551,77.9292754 79.6473553,79.3180753 73.8809556,79.3132753 C68.2281559,79.3076753 62.5745563,79.3244753 56.9209566,79.3076753 C51.5537569,79.2916753 48.1801571,75.9644755 48.1457571,70.6100758 C48.1113571,65.0812761 48.1097571,59.5524765 48.1473571,54.0236768 C48.1833571,48.7700771 51.5713569,45.4404773 56.8161566,45.4340773 C62.5313563,45.4276773 68.2457559,45.4324773 73.9617556,45.4324773 C79.8321552,45.4324773 81.8057551,46.7660772 83.904955,52.1524769 L83.904955,72.6628757 Z" id="Fill-5" fill="#FFFFFF"></path>
                    <path d="M65.9577561,76.8644754 C69.0617559,76.8644754 72.1665557,76.8900754 75.2697555,76.8580754 C79.0385553,76.8196754 81.4169551,74.6516756 81.4849551,70.9244758 C81.5905551,65.2148761 81.5889551,59.5004765 81.4841551,53.7908768 C81.4177551,50.140477 79.1297553,47.8572771 75.4801555,47.8012772 C69.1489559,47.7052772 62.8145563,47.6988772 56.4833566,47.8052772 C52.8225569,47.8668771 50.628157,50.222077 50.603357,53.8612768 C50.564957,59.5108765 50.569757,65.1612761 50.602557,70.8100758 C50.624157,74.5676756 52.8721568,76.8060754 56.6449566,76.8556754 C59.7489564,76.8972754 62.8537563,76.8644754 65.9577561,76.8644754 Z M83.904955,72.6628757 C81.7465551,77.9292754 79.6473553,79.3180753 73.8809556,79.3132753 C68.2281559,79.3076753 62.5745563,79.3244753 56.9209566,79.3076753 C51.5537569,79.2916753 48.1801571,75.9644755 48.1457571,70.6100758 C48.1113571,65.0812761 48.1097571,59.5524765 48.1473571,54.0236768 C48.1833571,48.7700771 51.5713569,45.4404773 56.8161566,45.4340773 C62.5313563,45.4276773 68.2457559,45.4324773 73.9617556,45.4324773 C79.8321552,45.4324773 81.8057551,46.7660772 83.904955,52.1524769 L83.904955,72.6628757 Z" id="Stroke-7" stroke="#FFFFFF" stroke-width="1.5999999"></path>
                    <rect id="Rectangle" fill="#FFFFFF" x="43" y="7" width="21" height="4" rx="2"></rect>
                    <rect id="Rectangle-Copy-6" fill="#FFFFFF" x="43" y="14" width="21" height="4" rx="2"></rect>
                </g>
                <g id="Group-3" transform="translate(159.000000, 50.000000)">
                    <mask id="mask-2" fill="white">
                        <use xlink:href="#path-1"></use>
                    </mask>
                    <g id="Clip-2"></g>
                    <path d="M3.89072012,19.1985606 L15.3355205,19.1985606 L15.3355205,13.5129604 L3.89072012,13.5129604 L3.89072012,19.1985606 Z M15.0940804,9.63104029 C17.5804805,9.63360029 19.1952006,11.2348803 19.2012806,13.7056004 C19.2056006,15.4846405 19.2070406,17.2636805 19.2009606,19.0427206 C19.1924806,21.4390406 17.5648005,23.0654407 15.1651205,23.0689607 C11.4472003,23.0744007 7.72912023,23.0752007 4.01120012,23.0684807 C1.65120005,23.0644807 0.0126400004,21.4281606 0.0035200001,19.0753606 C-0.0032000001,17.3363205 0.00160000005,15.5972805 0.00224000007,13.8582404 C0.0033600001,11.3752003 1.29840004,9.9152003 3.84304011,9.59664029 C3.84304011,8.33248025 3.83072011,7.05824021 3.84608011,5.78432017 C3.86688012,4.05264012 4.50656013,2.57568008 5.83200017,1.45920004 C7.66224023,-0.0825600025 9.74560029,-0.427840013 11.9308804,0.543840016 C14.0902404,1.50400004 15.2249605,3.2590401 15.3504005,5.62384017 C15.4120005,6.7859202 14.5891204,7.67488023 13.5024004,7.70800023 C12.4371204,7.74048023 11.6028803,6.93840021 11.5220803,5.80400017 C11.4401603,4.64928014 10.6372803,3.85504011 9.56928029,3.87200012 C8.47840025,3.88928012 7.68976023,4.74048014 7.68416023,5.92624018 C7.67856023,7.10544021 7.68816023,8.28480025 7.69344023,9.46384028 C7.69360023,9.49904028 7.72064023,9.53408028 7.76048023,9.63040029 C10.2176003,9.63040029 12.6556804,9.62848029 15.0940804,9.63104029 Z" id="Fill-1" fill="#FFFFFF" mask="url(#mask-2)"></path>
                </g>
                <g id="Mask-Copy-2" opacity="0.1">
                    <use fill="black" fill-opacity="1" filter="url(#filter-4)" xlink:href="#path-3"></use>
                    <use fill="#FFFFFF" fill-rule="evenodd" xlink:href="#path-3"></use>
                </g>
            </g>
        </g>
    </g>
</svg>