<?xml version="1.0" encoding="UTF-8"?>
<svg width="69px" height="163px" viewBox="0 0 69 83" version="1.1" xmlns="http://www.w3.org/2000/svg" xmlns:xlink="http://www.w3.org/1999/xlink">
    <!-- Generator: sketchtool 63.1 (101010) - https://sketch.com -->
    <title>DD32F25C-ADF1-4B10-A43D-774093EC10BB</title>
    <desc>Created with sketchtool.</desc>
    <g id="Page-1" stroke="none" stroke-width="1" fill="none" fill-rule="evenodd">
        <g id="HOME" transform="translate(-333.000000, -5471.000000)" fill="#FFFFFF">
            <g id="Group-15" transform="translate(334.000000, 5472.000000)">
                <g id="Group-3" transform="translate(16.000000, 28.000000)" stroke="#FFFFFF">
                    <path d="M38.3530037,2.13530211 L37.8239717,2.13530211 C36.1467298,2.13530211 34.4693562,2.14161891 32.7921142,2.13214371 C32.0368618,2.12780091 31.5821838,1.70549651 31.5904746,1.05710332 C31.5985022,0.431740118 32.0471266,0.0200953199 32.7764538,0.0166737199 C35.522551,0.00364531998 38.2686481,-0.00201347999 41.0148769,0.000618519997 C41.6656389,0.00114491999 42.1168953,0.480300518 42.1158444,1.14040611 C42.1116313,3.8699217 42.1046565,6.59930569 42.0930757,9.32882128 C42.0899173,10.0792045 41.6674813,10.5552017 41.0365909,10.5467793 C40.4113593,10.5383569 40.0001093,10.0520949 39.9986617,9.30342248 C39.9953717,7.60973048 39.9976089,5.91590689 39.9976089,4.2220833 L39.9976089,3.6484389 C39.7981033,3.8332053 39.6678193,3.9462497 39.5460893,4.0679797 C36.1734446,7.43930849 32.7946146,10.8048469 29.4368406,14.1913097 C28.9513682,14.6809933 28.4768186,14.8177257 27.8052638,14.6470405 C22.6675998,13.3414369 17.5217766,12.0679437 12.3822703,10.7698413 C12.0151063,10.6770633 11.7915179,10.7545757 11.5281863,11.0196181 C8.38689428,14.1806501 5.2323107,17.3283904 2.07970111,20.4781048 C1.92915071,20.6286552 1.77833711,20.7865752 1.60212471,20.9023832 C1.16442311,21.1905872 0.603675517,21.1037312 0.260331119,20.7182748 C-0.0643260797,20.3534796 -0.0901196796,19.7997068 0.209796719,19.401222 C0.308101919,19.2706748 0.428384318,19.1560512 0.544455517,19.03998 C3.8926227,15.6906284 7.24829109,12.3487781 10.5825087,8.98560848 C11.0594271,8.50447888 11.5301603,8.39261888 12.1755267,8.55606608 C17.284765,9.84956247 22.4016362,11.1135805 27.5108746,12.4076033 C27.949629,12.5186737 28.2166454,12.4360289 28.5318274,12.1183465 C31.6820682,8.94310168 34.8492854,5.78470169 38.0150549,2.62485411 C38.1413909,2.49891291 38.2999689,2.40534531 38.4434129,2.29664371 C38.4132765,2.24281931 38.3831401,2.18912651 38.3530037,2.13530211" id="Fill-1"></path>
                </g>
                <g id="document" fill-rule="nonzero">
                    <path d="M57.4821517,55 L17.789844,55 C16.8765074,55 16.1359978,55.601776 16.1359978,56.344 C16.1359978,57.0862239 16.8765074,57.6879999 17.789844,57.6879999 L57.4821517,57.6879999 C58.3954882,57.6879999 59.1359978,57.0862239 59.1359978,56.344 C59.1359978,55.601776 58.3954882,55 57.4821517,55 Z" id="Path"></path>
                    <path d="M57.4821517,62 L17.789844,62 C16.8765074,62 16.1359978,62.601776 16.1359978,63.344 C16.1359978,64.0862239 16.8765074,64.6879999 17.789844,64.6879999 L57.4821517,64.6879999 C58.3954882,64.6879999 59.1359978,64.0862239 59.1359978,63.344 C59.1359978,62.601776 58.3954882,62 57.4821517,62 Z" id="Path-Copy"></path>
                    <path d="M20.1599993,18.4399995 L17.4719994,18.4399995 C16.7297754,18.4399995 16.1279994,19.0417755 16.1279994,19.7839995 C16.1279994,20.5262234 16.7297754,21.1279994 17.4719994,21.1279994 L20.1599993,21.1279994 C20.9022232,21.1279994 21.5039992,20.5262234 21.5039992,19.7839995 C21.5039992,19.0417755 20.9022232,18.4399995 20.1599993,18.4399995 Z" id="Path"></path>
                    <path d="M40.538153,18.4399995 L24.8458453,18.4399995 C24.4847587,18.4399995 24.1919991,19.0417755 24.1919991,19.7839995 C24.1919991,20.5262234 24.4847587,21.1279994 24.8458453,21.1279994 L40.538153,21.1279994 C40.8992395,21.1279994 41.1919991,20.5262234 41.1919991,19.7839995 C41.1919991,19.0417755 40.8992395,18.4399995 40.538153,18.4399995 Z" id="Path"></path>
                    <path d="M67.1825255,20.0753273 C67.1758055,19.9575593 67.1527895,19.8413033 67.1139815,19.7299193 C67.0991975,19.6869113 67.0884455,19.6452473 67.0696295,19.6035833 C67.0042775,19.4574233 66.9132215,19.3240313 66.8008295,19.2097913 L47.9848302,0.393791985 C47.8705902,0.28139999 47.7371982,0.190343993 47.5910382,0.124991995 C47.5493742,0.106175996 47.5077102,0.0954239965 47.4660462,0.080639997 C47.3536543,0.0419999985 47.2365583,0.0184799993 47.1179503,0.0107519996 C47.0951023,0.0147839995 47.0695663,0 47.0399983,0 L9.40799965,0 C8.66577568,0 8.0639997,0.601775978 8.0639997,1.34399995 L8.0639997,5.3759998 L1.34399995,5.3759998 C0.601775978,5.3759998 0,5.97777578 0,6.71999975 L0,79.2959971 C0,80.038221 0.601775978,80.639997 1.34399995,80.639997 L57.7919979,80.639997 C58.5342218,80.639997 59.1359978,80.038221 59.1359978,79.2959971 L59.1359978,72.5759973 L65.8559976,72.5759973 C66.5982215,72.5759973 67.1999975,71.9742213 67.1999975,71.2319974 L67.1999975,20.1599993 C67.1999975,20.1304313 67.1852135,20.1048953 67.1825255,20.0753273 Z M48.3839982,4.58841583 L62.6115817,18.8159993 L48.3839982,18.8159993 L48.3839982,4.58841583 Z M56.4479979,77.9519971 L2.6879999,77.9519971 L2.6879999,8.0639997 L8.0639997,8.0639997 L8.0639997,71.2319974 C8.0639997,71.9742213 8.66577568,72.5759973 9.40799965,72.5759973 L56.4479979,72.5759973 L56.4479979,77.9519971 Z M64.5119976,69.8879974 L10.7519996,69.8879974 L10.7519996,2.6879999 L45.6959983,2.6879999 L45.6959983,20.1599993 C45.6959983,20.9022232 46.2977743,21.5039992 47.0399983,21.5039992 L64.5119976,21.5039992 L64.5119976,69.8879974 Z" id="Shape" stroke="#FFFFFF"></path>
                    <path d="M25.5359991,5 L17.4719994,5 C16.7297754,5 16.1279994,5.60177598 16.1279994,6.34399995 L16.1279994,14.4079997 C16.1279994,15.1502236 16.7297754,15.7519996 17.4719994,15.7519996 L25.5359991,15.7519996 C26.278223,15.7519996 26.879999,15.1502236 26.879999,14.4079997 L26.879999,6.34399995 C26.879999,5.60177598 26.278223,5 25.5359991,5 Z M24.1919991,13.0639997 L18.8159993,13.0639997 L18.8159993,7.6879999 L24.1919991,7.6879999 L24.1919991,13.0639997 Z" id="Shape"></path>
                </g>
            </g>
        </g>
    </g>
</svg>