<?xml version="1.0" encoding="UTF-8"?>
<svg width="305px" height="163px" viewBox="0 0 305 163" version="1.1" xmlns="http://www.w3.org/2000/svg" xmlns:xlink="http://www.w3.org/1999/xlink">
    <!-- Generator: Sketch 63.1 (92452) - https://sketch.com -->
    <title>Group 4</title>
    <desc>Created with Sketch.</desc>
    <defs>
        <path d="M10,46 L112,46 L112,46 L114.688,80.639997 L170.115816,80.639997 L168.447998,72.0630331 L178.108398,71.5283203 L178.108398,46 L283,46 C288.522847,46 293,50.4771525 293,56 L293,146 C293,151.522847 288.522847,156 283,156 L10,156 C4.4771525,156 6.76353751e-16,151.522847 0,146 L0,56 C-6.76353751e-16,50.4771525 4.4771525,46 10,46 Z" id="path-1"></path>
        <filter x="-3.1%" y="-8.2%" width="106.1%" height="116.4%" filterUnits="objectBoundingBox" id="filter-2">
            <feMorphology radius="1" operator="dilate" in="SourceAlpha" result="shadowSpreadOuter1"></feMorphology>
            <feOffset dx="0" dy="0" in="shadowSpreadOuter1" result="shadowOffsetOuter1"></feOffset>
            <feGaussianBlur stdDeviation="2" in="shadowOffsetOuter1" result="shadowBlurOuter1"></feGaussianBlur>
            <feColorMatrix values="0 0 0 0 0   0 0 0 0 0   0 0 0 0 0  0 0 0 0.197443182 0" type="matrix" in="shadowBlurOuter1"></feColorMatrix>
        </filter>
    </defs>
    <g id="Page-1" stroke="none" stroke-width="1" fill="none" fill-rule="evenodd">
        <g id="HOME-hover" transform="translate(-216.000000, -5471.000000)">
            <g id="Group-4" transform="translate(222.000000, 5472.000000)">
                <g id="Mask" opacity="0.1">
                    <use fill="black" fill-opacity="1" filter="url(#filter-2)" xlink:href="#path-1"></use>
                    <use fill="#FFFFFF" fill-rule="evenodd" xlink:href="#path-1"></use>
                </g>
                <g id="document" transform="translate(112.000000, 0.000000)" fill="#FFFFFF" fill-rule="nonzero">
                    <path d="M57.4821517,55 L17.789844,55 C16.8765074,55 16.1359978,55.601776 16.1359978,56.344 C16.1359978,57.0862239 16.8765074,57.6879999 17.789844,57.6879999 L57.4821517,57.6879999 C58.3954882,57.6879999 59.1359978,57.0862239 59.1359978,56.344 C59.1359978,55.601776 58.3954882,55 57.4821517,55 Z" id="Path"></path>
                    <path d="M57.4821517,62 L17.789844,62 C16.8765074,62 16.1359978,62.601776 16.1359978,63.344 C16.1359978,64.0862239 16.8765074,64.6879999 17.789844,64.6879999 L57.4821517,64.6879999 C58.3954882,64.6879999 59.1359978,64.0862239 59.1359978,63.344 C59.1359978,62.601776 58.3954882,62 57.4821517,62 Z" id="Path-Copy"></path>
                    <path d="M20.1599993,18.4399995 L17.4719994,18.4399995 C16.7297754,18.4399995 16.1279994,19.0417755 16.1279994,19.7839995 C16.1279994,20.5262234 16.7297754,21.1279994 17.4719994,21.1279994 L20.1599993,21.1279994 C20.9022232,21.1279994 21.5039992,20.5262234 21.5039992,19.7839995 C21.5039992,19.0417755 20.9022232,18.4399995 20.1599993,18.4399995 Z" id="Path"></path>
                    <path d="M40.538153,18.4399995 L24.8458453,18.4399995 C24.4847587,18.4399995 24.1919991,19.0417755 24.1919991,19.7839995 C24.1919991,20.5262234 24.4847587,21.1279994 24.8458453,21.1279994 L40.538153,21.1279994 C40.8992395,21.1279994 41.1919991,20.5262234 41.1919991,19.7839995 C41.1919991,19.0417755 40.8992395,18.4399995 40.538153,18.4399995 Z" id="Path"></path>
                    <path d="M67.1825255,20.0753273 C67.1758055,19.9575593 67.1527895,19.8413033 67.1139815,19.7299193 C67.0991975,19.6869113 67.0884455,19.6452473 67.0696295,19.6035833 C67.0042775,19.4574233 66.9132215,19.3240313 66.8008295,19.2097913 L47.9848302,0.393791985 C47.8705902,0.28139999 47.7371982,0.190343993 47.5910382,0.124991995 C47.5493742,0.106175996 47.5077102,0.0954239965 47.4660462,0.080639997 C47.3536543,0.0419999985 47.2365583,0.0184799993 47.1179503,0.0107519996 C47.0951023,0.0147839995 47.0695663,0 47.0399983,0 L9.40799965,0 C8.66577568,0 8.0639997,0.601775978 8.0639997,1.34399995 L8.0639997,5.3759998 L1.34399995,5.3759998 C0.601775978,5.3759998 0,5.97777578 0,6.71999975 L0,79.2959971 C0,80.038221 0.601775978,80.639997 1.34399995,80.639997 L57.7919979,80.639997 C58.5342218,80.639997 59.1359978,80.038221 59.1359978,79.2959971 L59.1359978,72.5759973 L65.8559976,72.5759973 C66.5982215,72.5759973 67.1999975,71.9742213 67.1999975,71.2319974 L67.1999975,20.1599993 C67.1999975,20.1304313 67.1852135,20.1048953 67.1825255,20.0753273 Z M48.3839982,4.58841583 L62.6115817,18.8159993 L48.3839982,18.8159993 L48.3839982,4.58841583 Z M56.4479979,77.9519971 L2.6879999,77.9519971 L2.6879999,8.0639997 L8.0639997,8.0639997 L8.0639997,71.2319974 C8.0639997,71.9742213 8.66577568,72.5759973 9.40799965,72.5759973 L56.4479979,72.5759973 L56.4479979,77.9519971 Z M64.5119976,69.8879974 L10.7519996,69.8879974 L10.7519996,2.6879999 L45.6959983,2.6879999 L45.6959983,20.1599993 C45.6959983,20.9022232 46.2977743,21.5039992 47.0399983,21.5039992 L64.5119976,21.5039992 L64.5119976,69.8879974 Z" id="Shape" stroke="#FFFFFF"></path>
                    <path d="M25.5359991,5 L17.4719994,5 C16.7297754,5 16.1279994,5.60177598 16.1279994,6.34399995 L16.1279994,14.4079997 C16.1279994,15.1502236 16.7297754,15.7519996 17.4719994,15.7519996 L25.5359991,15.7519996 C26.278223,15.7519996 26.879999,15.1502236 26.879999,14.4079997 L26.879999,6.34399995 C26.879999,5.60177598 26.278223,5 25.5359991,5 Z M24.1919991,13.0639997 L18.8159993,13.0639997 L18.8159993,7.6879999 L24.1919991,7.6879999 L24.1919991,13.0639997 Z" id="Shape"></path>
                </g>
            </g>
        </g>
    </g>
</svg>