<?xml version="1.0" encoding="UTF-8"?>
<svg width="305px" height="174px" viewBox="0 0 305 174" version="1.1" xmlns="http://www.w3.org/2000/svg" xmlns:xlink="http://www.w3.org/1999/xlink">
    <!-- Generator: Sketch 63.1 (92452) - https://sketch.com -->
    <title>Group 5</title>
    <desc>Created with Sketch.</desc>
    <defs>
        <path d="M10,58 L112,58 L112,58 L118.979492,61.8974609 L124.220142,65.048076 C116.993317,62.2846645 118.253269,63.8327668 128,69.6923828 C130.646989,71.2837202 128.333278,77.4503331 134.264648,77.4503331 C144.225586,77.4503331 151.342122,77.987071 155.614258,79.0605469 L162.529297,73.0351563 L169.919922,65.048076 C173.632431,64.0377877 176.290052,62.9875827 177.892783,61.8974609 C179.495515,60.8073392 180.291996,59.5081856 180.282227,58 L283,58 C288.522847,58 293,62.4771525 293,68 L293,158 C293,163.522847 288.522847,168 283,168 L10,168 C4.4771525,168 6.76353751e-16,163.522847 0,158 L0,68 C-6.76353751e-16,62.4771525 4.4771525,58 10,58 Z" id="path-1"></path>
        <filter x="-3.1%" y="-8.2%" width="106.1%" height="116.4%" filterUnits="objectBoundingBox" id="filter-2">
            <feMorphology radius="1" operator="dilate" in="SourceAlpha" result="shadowSpreadOuter1"></feMorphology>
            <feOffset dx="0" dy="0" in="shadowSpreadOuter1" result="shadowOffsetOuter1"></feOffset>
            <feGaussianBlur stdDeviation="2" in="shadowOffsetOuter1" result="shadowBlurOuter1"></feGaussianBlur>
            <feColorMatrix values="0 0 0 0 0   0 0 0 0 0   0 0 0 0 0  0 0 0 0.197443182 0" type="matrix" in="shadowBlurOuter1"></feColorMatrix>
        </filter>
        <polygon id="path-3" points="8.40000091e-05 0.0546000059 104.107385 0.0546000059 104.107385 104.159969 8.40000091e-05 104.159969"></polygon>
        <polygon id="path-5" points="0 104.315411 104.107511 104.315411 104.107511 0.210000023 0 0.210000023"></polygon>
    </defs>
    <g id="Page-1" stroke="none" stroke-width="1" fill="none" fill-rule="evenodd">
        <g id="HOME-hover" transform="translate(-571.000000, -5460.000000)">
            <g id="Group-5" transform="translate(577.000000, 5460.000000)">
                <g id="Mask-Copy" opacity="0.1">
                    <use fill="black" fill-opacity="1" filter="url(#filter-2)" xlink:href="#path-1"></use>
                    <use fill="#FFFFFF" fill-rule="evenodd" xlink:href="#path-1"></use>
                </g>
                <g id="Group-19" transform="translate(94.000000, 0.000000)">
                    <g id="Group-3" transform="translate(0.000000, 0.155400)">
                        <mask id="mask-4" fill="white">
                            <use xlink:href="#path-3"></use>
                        </mask>
                        <g id="Clip-2"></g>
                        <path d="M44.1343188,83.9277271 L59.9202305,83.9277271 C60.1548005,83.9277271 60.3448505,83.737467 60.3448505,83.503107 L60.3448505,81.1034367 C60.3448505,80.8688667 60.1548005,80.6783967 59.9202305,80.6783967 L44.1343188,80.6783967 C43.8997487,80.6783967 43.7096987,80.8688667 43.7096987,81.1034367 L43.7096987,83.503107 C43.7096987,83.737467 43.8997487,83.9277271 44.1343188,83.9277271 L44.1343188,83.9277271 Z M80.6386227,44.1669528 L80.6386227,59.9534945 C80.6386227,60.1880645 80.8286727,60.3781145 81.0634527,60.3781145 L83.468163,60.3781145 C83.702733,60.3781145 83.892783,60.1880645 83.892783,59.9534945 L83.892783,44.1669528 C83.892783,43.9323827 83.702733,43.7423327 83.468163,43.7423327 L81.0634527,43.7423327 C80.8286727,43.7423327 80.6386227,43.9323827 80.6386227,44.1669528 L80.6386227,44.1669528 Z M23.4113065,59.9912945 L23.4113065,44.2058028 C23.4113065,43.9710227 23.2212565,43.7809727 22.9866865,43.7809727 L20.5857562,43.7809727 C20.3511862,43.7809727 20.1609262,43.9710227 20.1609262,44.2058028 L20.1609262,59.9912945 C20.1609262,60.2258645 20.3511862,60.4159145 20.5857562,60.4159145 L22.9866865,60.4159145 C23.2212565,60.4159145 23.4113065,60.2258645 23.4113065,59.9912945 L23.4113065,59.9912945 Z M60.3393905,16.3295598 L60.3393905,13.9057395 C60.3393905,13.6711695 60.1493405,13.4809095 59.9147705,13.4809095 L44.1376788,13.4809095 C43.9028987,13.4809095 43.7128487,13.6711695 43.7128487,13.9057395 L43.7128487,16.3295598 C43.7128487,16.5641298 43.9028987,16.7541798 44.1376788,16.7541798 L59.9147705,16.7541798 C60.1493405,16.7541798 60.3393905,16.5641298 60.3393905,16.3295598 L60.3393905,16.3295598 Z M40.6743584,58.7474643 C40.4391584,58.7474643 40.2478483,58.5557343 40.2493183,58.3205343 C40.2587683,56.8406641 40.3083283,55.420434 40.2110983,54.0104938 C40.1722483,53.4441238 39.8423383,52.7418837 39.4091083,52.4075637 C39.0577782,52.1364536 38.3007281,52.1729936 37.8173081,52.3416236 C37.053958,52.6074837 36.921868,53.3567638 36.922704,54.1144438 C36.929008,59.7077944 36.914308,65.301355 36.949798,70.8944956 C36.952318,71.3037857 37.204738,71.7989657 37.497478,72.1045158 C39.1484982,73.827146 40.8322784,75.5214261 42.5782186,77.1470363 C42.6452086,77.2096163 42.7754086,77.2610663 42.8673886,77.2616963 C48.7751093,77.3043263 54.6830399,77.3066363 60.5907605,77.2646363 C61.0613706,77.2614863 61.6325706,76.9996163 61.9811707,76.6709663 C63.4849808,75.2530461 64.902901,73.744406 66.3968412,72.3149358 C66.9285612,71.8061057 67.1444412,71.2888757 67.142771,70.5446356 C67.1184012,60.1714745 67.1265912,49.7983134 67.1249112,39.4249423 C67.1249112,38.6615922 67.1618712,37.8770321 66.5297712,37.223302 C66.4764312,37.168072 66.4054512,37.129012 66.3309012,37.110742 C64.745191,36.716782 63.8119509,37.381852 63.8077509,38.9648322 C63.7964109,42.9649126 63.8029209,46.9649931 63.8027109,50.9652835 L63.8027109,51.9514436 C63.8027109,51.9934436 63.7695309,52.0268336 63.7277409,52.0268336 C63.2768708,52.0268336 60.9315906,52.0268336 60.4813505,52.0266236 C60.4395605,52.0266236 60.4063805,51.9911336 60.4063805,51.9495536 L60.4063805,50.8871635 C60.4063805,44.8532328 60.4070105,38.8188822 60.4049105,32.7847415 C60.4047005,32.0064815 60.4567805,31.2065914 59.8605905,30.5289213 C59.8062005,30.4671813 59.7310204,30.4237113 59.6512204,30.4035513 C57.9871803,29.9822912 57.0888002,30.6482013 57.0871202,32.3693615 C57.0808202,38.5391622 57.0841802,44.7089628 57.0839702,50.8785535 L57.0839702,51.9394736 C57.0839702,51.9837836 57.0491102,52.0209536 57.0050101,52.0209536 L53.7649198,52.0209536 C53.7212398,52.0209536 53.6867998,51.9846236 53.6867998,51.9409436 L53.6867998,50.7708235 C53.6867998,43.6182227 53.6876398,36.4652019 53.6861698,29.3126012 C53.6857498,27.694341 53.1256797,26.8850009 52.0204496,26.8896012 C50.9166895,26.8942409 50.3660694,27.699171 50.3656494,29.3235212 C50.3643894,36.4763319 50.3650194,43.6293527 50.3650194,50.7819535 L50.3650194,51.9380036 C50.3650194,51.9821036 50.3301594,52.0192736 50.2860594,52.0192736 L47.0459691,52.0192736 C47.0022891,52.0192736 46.9678491,51.9825236 46.9678491,51.9388436 L46.9678491,50.8674235 C46.9678491,45.918143 46.9688991,40.9688624 46.9670091,36.0195819 C46.9665891,34.4107717 46.393709,33.5934516 45.2876389,33.6092016 C44.1874488,33.6249516 43.6464887,34.4252617 43.6462787,36.0540219 C43.6448087,43.2070427 43.6456487,50.3596434 43.6454387,57.5126642 L43.6454387,58.3224243 C43.6454387,58.5572043 43.4553887,58.7474643 43.2206087,58.7474643 L40.6743584,58.7474643 Z M103.603595,40.2785923 L87.7947935,40.2785923 C87.5602234,40.2785923 87.3699634,40.4690624 87.3699634,40.7036324 L87.3699634,63.4535648 C87.3699634,63.6879249 87.5602234,63.8781849 87.7947935,63.8781849 L103.682555,63.8781849 C103.917335,63.8781849 104.107385,64.0684449 104.107385,64.3030149 L104.107385,66.7112952 C104.107385,66.9448152 103.918805,67.1342352 103.685285,67.1357052 C101.117405,67.1510352 98.5491046,67.1718252 95.9812244,67.1779152 C92.728954,67.1856852 89.4771037,67.1844252 86.2252533,67.1774952 C84.4942231,67.1741352 83.9715331,66.6529152 83.9564131,64.954225 C83.9545231,64.739815 83.9549431,64.524985 83.9553631,64.2797049 C83.9559931,64.0470249 83.765523,63.8552949 83.532423,63.8534049 C82.4534429,63.8441649 81.4399828,63.8090949 80.4340827,63.8815449 C79.9521326,63.9161949 79.3807226,64.1238849 79.0382125,64.450645 C77.2492223,66.1568951 75.5658622,67.9757053 73.743692,69.6437355 C73.2023119,70.1395456 72.3411018,70.3071256 71.6035817,70.5570256 C71.4265517,70.6168756 71.2270517,70.6109956 70.9861817,70.5967156 C70.7211616,70.5805456 70.5082216,70.8132256 70.5439216,71.0763557 C70.7774416,72.7979359 69.6778815,73.843316 68.5518614,74.9107461 C67.1020212,76.2849862 65.7097211,77.7207564 64.3117509,79.1487565 C64.0910409,79.3740866 63.8390409,79.6930766 63.8279109,79.9776266 C63.7817109,81.1536268 63.7999809,82.3323569 63.8043909,83.583117 C63.8052309,83.818317 63.9984309,84.0104671 64.2334209,84.0081571 C64.620241,84.0041671 64.964431,83.9989171 65.308201,84.0140371 C66.4636212,84.0646471 67.1074812,84.6350071 67.1091612,85.7696373 C67.1184012,91.7584179 67.0948812,97.7474085 67.0816512,103.736189 C67.0812312,103.970339 66.8911812,104.159969 66.6570312,104.159969 L64.2504309,104.159969 C64.0158609,104.159969 63.8258109,103.969709 63.8258109,103.735139 L63.8258109,87.8473775 C63.8258109,87.6128074 63.6353409,87.4225474 63.4009808,87.4225474 L40.6510484,87.4225474 C40.4164784,87.4225474 40.2262183,87.6128074 40.2262183,87.8473775 L40.2262183,103.735139 C40.2262183,103.969709 40.0359583,104.159969 39.8013883,104.159969 L37.394788,104.159969 C37.160638,104.159969 36.970798,103.970339 36.970168,103.736189 C36.957358,97.7421585 36.934468,91.7481279 36.943708,85.7543072 C36.945598,84.6593671 37.5718181,84.0822871 38.6600382,84.0180271 C39.0187182,83.9968171 39.3790782,84.0052171 39.8104183,84.0104671 C40.0458283,84.0131971 40.2390283,83.821467 40.2398683,83.585847 C40.2436483,82.3212269 40.2593983,81.0864267 40.2163483,79.8537266 C40.2077383,79.6057166 39.9305383,79.3381766 39.7257883,79.1304865 C38.2730081,77.6585964 36.833038,76.1726362 35.3363678,74.7463161 C34.2271477,73.6891759 33.1716876,72.6473658 33.5295276,71.0538857 C33.5643876,70.8989056 33.5110476,70.7334256 33.3852576,70.6361956 C33.3596376,70.6162456 33.3409476,70.6065856 33.3237276,70.6091056 C31.6143274,70.8581656 30.4649973,69.9849855 29.3771972,68.8001654 C27.979437,67.2785053 26.4886469,65.8393751 24.9865167,64.4191449 C24.6624867,64.1127549 24.1284566,63.9101049 23.6767466,63.8802849 C22.6605564,63.8135049 21.6376463,63.8456349 20.5196062,63.8536149 C20.2862962,63.8552949 20.0958262,64.0463949 20.0964562,64.2797049 C20.0970862,64.533175 20.0977162,64.767115 20.0951962,65.001055 C20.0786062,66.6333852 19.5405861,67.1745552 17.8786459,67.1770752 C13.0982054,67.1842152 8.3177649,67.1795952 3.53753438,67.1798052 L0.441924048,67.1798052 C0.208404022,67.1798052 0.0162540018,66.9887052 0.0162540018,66.7551852 L0.0162540018,64.3256949 C0.0162540018,64.0911249 0.206304022,63.9010749 0.441084048,63.9010749 L16.2563958,63.9010749 C16.4909658,63.9010749 16.6812258,63.7108149 16.6812258,63.4762448 L16.6812258,40.7546624 C16.6812258,40.5203024 16.4909658,40.3300423 16.2563958,40.3300423 L0.424704046,40.3300423 C0.190134021,40.3300423 8.40000091e-05,40.1397823 8.40000091e-05,39.9052123 L8.40000091e-05,37.428892 C8.40000091e-05,37.203352 0.177114019,37.017082 0.402234043,37.004692 C0.639114069,36.991462 0.870324094,36.979492 1.10174412,36.979282 C6.5262547,36.976342 11.9509753,36.976972 17.3754859,36.977392 C19.7325261,36.977602 20.0462662,37.289032 20.0975062,39.6698023 C20.0991862,39.7433023 20.1033862,39.8165923 20.1092662,39.9016423 C20.1243862,40.1179423 20.3152762,40.2953923 20.5322062,40.2960223 C21.7657463,40.3004323 22.9799665,40.3201723 24.1912466,40.2706123 C24.4699166,40.2592723 24.7725267,39.9707323 25.0016367,39.7460323 C26.4046468,38.3686421 27.804717,36.987472 29.1762271,35.5787918 C30.2499573,34.4765017 31.2518674,33.2635416 33.0280476,33.5852616 C33.2894976,33.6327216 33.5309976,33.4353216 33.5322576,33.1694616 C33.5425476,30.9436713 33.6084876,28.8800011 33.5022276,26.8251509 C33.4184376,25.2022707 33.8850577,23.9853206 35.1097778,22.8924805 C36.726148,21.4504103 38.2167281,19.8642801 39.7150783,18.29579 C40.0031983,17.9942299 40.2010183,17.4948499 40.2253783,17.0742198 C40.2860683,16.0300997 40.2575083,14.9809396 40.2505783,13.8484095 C40.2491083,13.6115295 40.0542283,13.4202194 39.8173483,13.4246294 C39.3685782,13.4332394 38.9613882,13.4473095 38.5588182,13.4111894 C37.6400681,13.3286594 36.973738,12.8469194 36.965128,11.8853293 C36.931318,8.10091887 36.949168,4.31587847 36.950638,0.479808052 C36.950638,0.245448026 37.140478,0.0545580059 37.375048,0.0545580059 L39.7852183,0.0545580059 C40.0197883,0.0545580059 40.2100483,0.244818026 40.2100483,0.479388052 L40.2100483,9.56503903 C40.2100483,9.79939906 40.4000984,9.98965908 40.6346684,9.98965908 L63.3577208,9.98965908 C63.5922909,9.98965908 63.7825509,9.79939906 63.7825509,9.56503903 L63.7825509,0.490308053 C63.7825509,0.255738028 63.9728109,0.0654780071 64.2071709,0.0654780071 L66.7023912,0.0654780071 C66.9369612,0.0654780071 67.1272212,0.255738028 67.1272212,0.490308053 L67.1272212,1.11610812 C67.1272212,4.37068847 67.1282712,7.62547882 67.1268012,10.8802692 C67.1257512,13.0060994 66.7221312,13.4071994 64.567741,13.4309294 C64.464841,13.4319794 64.3617309,13.4321894 64.2384609,13.4319794 C64.0049409,13.4315594 63.8136309,13.6228695 63.8127909,13.8563895 C63.8090109,15.1231096 63.7930509,16.3595898 63.8365209,17.5939699 C63.8453409,17.8411399 64.1271609,18.10679 64.3329609,18.31448 C66.0742811,20.0728102 67.8141313,21.8334504 69.5838015,23.5630105 C70.2331216,24.1976306 70.5554716,24.9021807 70.5309016,25.8177808 C70.4964616,27.1040309 70.5162016,28.3915411 70.5201916,29.7433112 C70.5208216,29.9783012 70.3301416,30.1702413 70.0951516,30.1702413 L67.5533113,30.1702413 C67.3176913,30.1702413 67.1261712,29.9787212 67.1280612,29.7433112 C67.1364612,28.7088511 67.1675412,27.676071 67.1009712,26.6498009 C67.0717812,26.1968308 66.8645112,25.6613308 66.5560212,25.3366707 C65.061451,23.7644006 63.5255109,22.2297204 61.9542907,20.7343102 C61.6290006,20.4245602 61.0924506,20.1757102 60.6514505,20.1729802 C54.8882099,20.1360202 49.1245493,20.1377002 43.3608887,20.1710902 C42.9482386,20.1734002 42.4436086,20.3999902 42.1407885,20.6889502 C40.6201784,22.1394204 39.1726482,23.6665406 37.6549781,25.1201607 C37.123468,25.6296208 36.904438,26.1464308 36.908638,26.8908809 C36.939298,32.6205215 36.925438,38.3501621 36.925438,44.0798028 L36.925438,44.8505028 C36.925438,45.0850729 36.735388,45.2753329 36.5006079,45.2753329 L33.9992977,45.2753329 C33.7649376,45.2753329 33.5746776,45.0850729 33.5746776,44.8505028 L33.5746776,37.406002 C33.5746776,37.110112 33.2794176,36.905152 33.0017976,37.007632 C32.6168675,37.150222 32.2997675,37.262152 32.0782175,37.474042 C30.4612173,39.0200622 28.8822271,40.6070324 27.3303269,42.2185726 C27.0592169,42.4999726 26.8372469,42.9661726 26.8351469,43.3485827 C26.8042769,49.1796533 26.8057469,55.0111439 26.8330469,60.8422146 C26.8347269,61.1971146 27.0314969,61.6326546 27.2816069,61.8911647 C28.8605971,63.5239149 30.4628973,65.134825 32.1011075,66.7079352 C32.3090075,66.9076452 32.6015375,67.0195752 32.9524476,67.1548152 C33.2306976,67.2619153 33.5309976,67.0565352 33.5309976,66.7583352 L33.5309976,65.180815 C33.5309976,61.5868746 33.5259576,57.9931443 33.5324676,54.3994139 C33.5391876,50.5396135 35.9732979,48.3663232 39.7663183,48.8902733 C40.0212583,48.9255533 40.2491083,48.7285733 40.2491083,48.4711132 L40.2491083,47.8774432 C40.2491083,43.9445627 40.2472183,40.0116823 40.2497383,36.0788019 C40.2524683,32.0594015 42.5626786,29.9365112 46.524959,30.3999813 C46.780319,30.4298013 47.0043891,30.2271513 46.9982991,29.9701112 C46.9840191,29.3816912 46.9581891,28.8029311 47.0167791,28.232781 C47.2683591,25.7833408 48.9584393,23.9298806 51.1722595,23.6054305 C53.6345098,23.2446505 55.67508,24.4149806 56.7036601,26.7768509 C56.7175201,26.8083509 56.7318001,26.8396409 56.7471301,26.8719809 C56.8281901,27.0437609 57.0480602,27.1498109 57.2318102,27.1015109 C59.1096304,26.6075909 60.8181906,26.9633309 62.2686607,28.3461811 C63.6899409,29.7008912 63.8728509,31.4495614 63.8067009,33.2845416 C63.7972509,33.5443116 64.0213209,33.7511616 64.2798309,33.7215516 C64.809241,33.6610716 65.293081,33.5917716 65.7691511,33.6268416 C68.5816814,33.8332716 70.4968816,35.9899719 70.5147316,38.9799522 C70.5384616,42.9466426 70.5208216,46.9133331 70.5208216,50.8800235 L70.5208216,65.9332451 L70.5208216,66.7360752 C70.5208216,67.0323852 70.8175516,67.2371353 71.0953817,67.1336052 C71.4553217,66.9992052 71.7619217,66.8858052 71.9786418,66.6783252 C73.725422,65.007355 75.4327221,63.2931248 77.0963423,61.5400446 C77.1606023,61.4724246 77.2133123,61.3409646 77.2137323,61.2479346 C77.2483823,55.336014 77.2536323,49.4232533 77.2122623,43.5113327 C77.2089023,43.0409326 76.9480823,42.4657426 76.6173323,42.1215525 C74.9112921,40.3474724 73.1525419,38.6244222 71.4389417,36.918382 C71.2703117,36.750592 71.2732517,36.4769619 71.4448217,36.3119019 C72.0473118,35.7312519 72.6376218,35.1623618 73.2766519,34.5464317 C73.4408719,34.3885117 73.7058919,34.3910317 73.869692,34.5493717 C75.0278421,35.6699318 76.4306422,36.813382 77.4432624,38.2348721 C79.0644625,40.5102224 81.2041528,40.4486924 83.564133,40.2517123 C83.785683,40.2332323 83.9566231,40.0475923 83.9549431,39.8249923 C83.9526331,39.5190223 83.9503231,39.2172522 83.9587231,38.9159022 C83.9954731,37.5964721 84.5727631,36.994822 85.9047933,36.985162 C88.8542436,36.964162 91.8039039,36.971302 94.7535642,36.979072 C97.7044845,36.986422 100.655195,37.005952 103.606115,37.021072 C103.839845,37.022332 104.028635,37.212172 104.028635,37.445692 L104.028425,39.8539723 C104.028425,40.0885423 103.838165,40.2785923 103.603595,40.2785923 L103.603595,40.2785923 Z" id="Fill-1" fill="#FFFFFF" mask="url(#mask-4)"></path>
                    </g>
                    <path d="M46.280456,6.83766374 L44.3513958,6.83766374 C44.0034257,6.83766374 43.7213957,6.55563371 43.7213957,6.20766367 L43.7213957,4.20909345 C43.7213957,3.86112342 44.0034257,3.57909339 44.3513958,3.57909339 L46.280456,3.57909339 C46.628216,3.57909339 46.9104561,3.86112342 46.9104561,4.20909345 L46.9104561,6.20766367 C46.9104561,6.55563371 46.628216,6.83766374 46.280456,6.83766374" id="Fill-4" fill="#FFFFFF"></path>
                    <path d="M57.1451012,6.17824267 L57.1451012,4.20319245 C57.1451012,3.85522242 57.4273412,3.57319239 57.7751012,3.57319239 L59.6861014,3.57319239 C60.0340715,3.57319239 60.3161015,3.85522242 60.3161015,4.20319245 L60.3161015,6.17824267 C60.3161015,6.5262127 60.0340715,6.80824273 59.6861014,6.80824273 L57.7751012,6.80824273 C57.4273412,6.80824273 57.1451012,6.5262127 57.1451012,6.17824267" id="Fill-6" fill="#FFFFFF"></path>
                    <path d="M12.6956354,47.1384951 L10.7476752,47.1384951 C10.3994951,47.1384951 10.1176751,46.8562551 10.1176751,46.508495 L10.1176751,44.5632648 C10.1176751,44.2152948 10.3994951,43.9332647 10.7476752,43.9332647 L12.6956354,43.9332647 C13.0436054,43.9332647 13.3256354,44.2152948 13.3256354,44.5632648 L13.3256354,46.508495 C13.3256354,46.8562551 13.0436054,47.1384951 12.6956354,47.1384951" id="Fill-8" fill="#FFFFFF"></path>
                    <path d="M10.7453442,57.3454412 L12.6981344,57.3454412 C13.0461044,57.3454412 13.3281344,57.6276812 13.3281344,57.9754413 L13.3281344,59.9246615 C13.3281344,60.2726315 13.0461044,60.5546615 12.6981344,60.5546615 L10.7453442,60.5546615 C10.3973741,60.5546615 10.1153441,60.2726315 10.1153441,59.9246615 L10.1153441,57.9754413 C10.1153441,57.6276812 10.3973741,57.3454412 10.7453442,57.3454412" id="Fill-10" fill="#FFFFFF"></path>
                    <path d="M90.7079768,46.491065 L90.7079768,44.5563348 C90.7079768,44.2083648 90.9902168,43.9263347 91.3379769,43.9263347 L93.2932871,43.9263347 C93.6410471,43.9263347 93.9232871,44.2083648 93.9232871,44.5563348 L93.9232871,46.491065 C93.9232871,46.8388251 93.6410471,47.1210651 93.2932871,47.1210651 L91.3379769,47.1210651 C90.9902168,47.1210651 90.7079768,46.8388251 90.7079768,46.491065" id="Fill-12" fill="#FFFFFF"></path>
                    <path d="M91.3537689,57.3317072 L93.3071891,57.3317072 C93.6551591,57.3317072 93.9371891,57.6137372 93.9371891,57.9617073 L93.9371891,59.9069375 C93.9371891,60.2546975 93.6551591,60.5369375 93.3071891,60.5369375 L91.3537689,60.5369375 C91.0060088,60.5369375 90.7237688,60.2546975 90.7237688,59.9069375 L90.7237688,57.9617073 C90.7237688,57.6137372 91.0060088,57.3317072 91.3537689,57.3317072" id="Fill-14" fill="#FFFFFF"></path>
                    <mask id="mask-6" fill="white">
                        <use xlink:href="#path-5"></use>
                    </mask>
                    <g id="Clip-17"></g>
                    <polygon id="Fill-16" fill="#FFFFFF" mask="url(#mask-6)" points="43.7094047 94.1610702 46.8879651 94.1610702 46.8879651 90.9180398 43.7094047 90.9180398"></polygon>
                    <polygon id="Fill-18" fill="#FFFFFF" mask="url(#mask-6)" points="57.1498262 94.1766102 60.3208265 94.1766102 60.3208265 90.9552098 57.1498262 90.9552098"></polygon>
                </g>
            </g>
        </g>
    </g>
</svg>