<?xml version="1.0" encoding="UTF-8"?>
<svg width="19px" height="31px" viewBox="0 0 19 31" version="1.1" xmlns="http://www.w3.org/2000/svg" xmlns:xlink="http://www.w3.org/1999/xlink">
    <!-- Generator: sketchtool 63.1 (101010) - https://sketch.com -->
    <title>729F3C6D-2305-4F3C-B9C5-687E7AEEB4D2</title>
    <desc>Created with sketchtool.</desc>
    <g id="Page-1" stroke="none" stroke-width="1" fill="none" fill-rule="evenodd">
        <g id="HOME" transform="translate(-710.000000, -618.000000)" fill="#FFFFFF" fill-rule="nonzero">
            <g id="Group-20" transform="translate(685.000000, 618.000000)">
                <g id="wirelss-mouse" transform="translate(25.000000, 0.000000)">
                    <path d="M9.34500037,0 L9.34500037,0 C4.25490017,0 0.128550005,4.12635016 0.128550005,9.21645037 L0.128550005,21.7735509 C0.128550005,26.8636511 4.25490017,30.9900012 9.34500037,30.9900012 L9.34500037,30.9900012 C14.4351006,30.9900012 18.5614507,26.8636511 18.5614507,21.7735509 L18.5614507,9.21645037 C18.5614507,4.12635016 14.4351006,0 9.34500037,0 Z M10.5537004,9.75765039 C10.5537004,10.4253004 10.0125004,10.9663504 9.34500037,10.9663504 L9.34500037,10.9663504 C8.67735034,10.9663504 8.13630032,10.4251504 8.13630032,9.75765039 L8.13630032,5.56980022 C8.13630032,4.90230019 8.67750034,4.36110017 9.34500037,4.36110017 L9.34500037,4.36110017 C10.0125004,4.36110017 10.5537004,4.90230019 10.5537004,5.56980022 L10.5537004,9.75765039 Z" id="Shape"></path>
                </g>
            </g>
        </g>
    </g>
</svg>